# xmcd
#
# Track frame offsets: 
#        150
#        4297
#        21932
#        40460
#        51627
#        72500
#        91707
#        111885
#        130195
#        141915
#        157587
#        171155
#        186472
#
# Disc length: 2654 seconds
#
# Revision: 2
# Processed by: cddbd v1.5.2PL0 Copyright (c) Steve Scherf et al.
# Submitted via: ExactAudioCopy v1.0b3
#
DISCID=b70a5c0d
DTITLE=チューリップ - ザ・名盤2 心の旅／ぼくがつくった愛のうた Disc 2 ぼくがつくった愛のうた CT22-5035-36
DYEAR=1997
DGENRE=Folk/Rock
TTITLE0=ひとつの星
TTITLE1=私のアイドル
TTITLE2=なくした言葉
TTITLE3=この暗闇の中
TTITLE4=ここはどこ
TTITLE5=踊り娘
TTITLE6=仔牛のロー・カウジー
TTITLE7=アンクル・スパゲティー(三文歌手)
TTITLE8=走れ!ムーン号
TTITLE9=ぼくがつくった愛のうた(いとしのEmily)
TTITLE10=Mr.プレスマン
TTITLE11=歌は生きている
TTITLE12=世界の果てで
EXTD=
EXTT0=
EXTT1=
EXTT2=
EXTT3=
EXTT4=
EXTT5=
EXTT6=
EXTT7=
EXTT8=
EXTT9=
EXTT10=
EXTT11=
EXTT12=
PLAYORDER=
